#tb 0: 1/7
#media_type 0: video
#codec_id 0: rawvideo
#dimensions 0: 320x240
#sar 0: 1/1
0,          0,          0,        1,   115200, 0x7ed43658
0,          1,          1,        1,   115200, 0x5418f45b
0,          2,          2,        1,   115200, 0x9872fad9
0,          3,          3,        1,   115200, 0x4dbbf2e0
0,          4,          4,        1,   115200, 0xcce711f5
0,          5,          5,        1,   115200, 0xaa341025
0,          6,          6,        1,   115200, 0xb41eeaac
